<svg xmlns="http://www.w3.org/2000/svg" width="30" height="30" viewBox="0 0 30 30">
  <path id="Icon_awesome-linkedin" data-name="Icon awesome-linkedin" d="M27.857,2.25H2.136A2.152,2.152,0,0,0,0,4.413V30.087A2.152,2.152,0,0,0,2.136,32.25H27.857A2.158,2.158,0,0,0,30,30.087V4.413A2.158,2.158,0,0,0,27.857,2.25ZM9.067,27.964H4.621V13.647H9.074V27.964ZM6.844,11.692A2.578,2.578,0,1,1,9.422,9.114a2.579,2.579,0,0,1-2.578,2.578ZM25.734,27.964H21.288V21c0-1.661-.033-3.8-2.31-3.8-2.317,0-2.672,1.808-2.672,3.676v7.085H11.859V13.647h4.266V15.6h.06a4.683,4.683,0,0,1,4.212-2.31c4.5,0,5.337,2.967,5.337,6.824Z" transform="translate(0 -2.25)" fill="#fff"/>
</svg>
